<svg xmlns="http://www.w3.org/2000/svg" width="198.425" height="76.536"><path fill="#58595B" d="M83.802 7.88c0 1.064-.178 1.957-.53 2.673a4.666 4.666 0 0 1-1.482 1.75c-.636.446-1.383.766-2.241.961-.863.191-1.81.292-2.842.292a28.983 28.983 0 0 1-2.53-.128v7.118a.532.532 0 0 1-.129.356.405.405 0 0 1-.328.152h-1.367a.41.41 0 0 1-.331-.152.556.556 0 0 1-.127-.356V2.891c0-.373.204-.584.61-.637a25.924 25.924 0 0 1 1.95-.15c.76-.031 1.511-.05 2.252-.05 1.032 0 1.979.095 2.842.291.858.194 1.605.506 2.241.938.631.43 1.125.995 1.482 1.697.353.7.53 1.557.53 2.571v.329zm-2.305-.343c0-1.279-.388-2.188-1.165-2.724-.778-.54-1.985-.81-3.625-.81-.386 0-.831.01-1.326.026a15.01 15.01 0 0 0-1.204.074V11.5c.152 0 .335.01.555.025.219.018.446.03.684.039.238.009.472.019.699.024.228.007.427.014.593.014 1.742 0 2.976-.295 3.7-.883.727-.59 1.09-1.541 1.09-2.855v-.327zm14.288 13.009a.477.477 0 0 1-.152.356.48.48 0 0 1-.353.152h-1.166a.486.486 0 0 1-.354-.152.482.482 0 0 1-.154-.356v-.558c-.606.356-1.232.652-1.874.888a5.767 5.767 0 0 1-2.024.354 6.283 6.283 0 0 1-1.56-.188 3.285 3.285 0 0 1-1.318-.673c-.38-.318-.683-.742-.911-1.265-.229-.524-.342-1.184-.342-1.978v-.304c0-.675.105-1.272.315-1.785a2.96 2.96 0 0 1 1.038-1.292c.482-.347 1.11-.604 1.888-.775.777-.169 1.731-.254 2.863-.254h1.876v-1.01c0-1.065-.204-1.811-.611-2.232-.401-.421-1.104-.633-2.102-.633-.826 0-1.554.021-2.179.064-.625.041-1.19.089-1.698.141h-.125a.64.64 0 0 1-.316-.077c-.092-.053-.139-.159-.139-.329v-.885c0-.271.177-.432.53-.482a33.78 33.78 0 0 1 1.712-.228 20.791 20.791 0 0 1 2.215-.103c1.756 0 3.02.423 3.789 1.267.768.845 1.151 2.011 1.151 3.498v8.839zm-2.228-6.231h-1.876c-.76 0-1.393.045-1.898.137-.506.095-.904.238-1.192.433a1.583 1.583 0 0 0-.609.76c-.115.314-.175.698-.175 1.151v.304c0 .913.201 1.527.608 1.839.403.313.978.47 1.722.47.59 0 1.157-.087 1.697-.256.54-.166 1.112-.422 1.724-.759v-4.079zm16.34 6.231a.48.48 0 0 1-.152.356.483.483 0 0 1-.354.152h-1.219a.494.494 0 0 1-.354-.152.48.48 0 0 1-.152-.356V12.23c0-.643-.055-1.176-.162-1.605-.113-.428-.279-.772-.506-1.022a1.905 1.905 0 0 0-.877-.545c-.354-.11-.77-.161-1.24-.161-.541 0-1.1.089-1.674.274-.572.186-1.158.423-1.748.707v10.668c0 .14-.049.256-.15.356a.483.483 0 0 1-.354.152h-1.243a.449.449 0 0 1-.342-.152.51.51 0 0 1-.141-.356V7.627c0-.135.047-.256.141-.354a.449.449 0 0 1 .342-.152h1.269c.135 0 .248.052.34.155a.51.51 0 0 1 .139.357v.49a11.242 11.242 0 0 1 1.979-.886c.605-.196 1.293-.295 2.051-.295 1.537 0 2.654.456 3.355 1.367.703.913 1.053 2.214 1.053 3.902v8.335zm-1.873-19.051c0 .066-.035.137-.102.205l-2.863 3.19a2.804 2.804 0 0 1-.281.291c-.066.061-.168.089-.303.089h-1.367c-.152 0-.227-.058-.227-.177 0-.1.031-.185.098-.256l2.484-3.138c.119-.139.211-.234.277-.291.068-.062.18-.094.332-.094h1.672c.187.001.28.066.28.181zm14.135 16.062c0 .643-.111 1.196-.342 1.659a2.957 2.957 0 0 1-.963 1.14c-.412.298-.912.519-1.492.661a8.086 8.086 0 0 1-1.939.214c-.238 0-.52-.003-.85-.011a17.22 17.22 0 0 1-1.037-.065c-.365-.032-.73-.07-1.102-.112a6.356 6.356 0 0 1-1.014-.191c-.357-.084-.533-.25-.533-.506v-.889c0-.118.041-.211.127-.278a.512.512 0 0 1 .328-.101h.102c.305.034.637.065 1.002.101.361.035.73.066 1.1.088.371.027.719.05 1.041.065.322.017.598.025.836.025.826 0 1.451-.127 1.873-.379.424-.254.635-.727.635-1.421 0-.388-.133-.726-.406-1.013-.27-.289-.768-.649-1.492-1.087l-2.561-1.522c-.779-.474-1.404-.993-1.875-1.561-.475-.563-.709-1.251-.709-2.062 0-.658.115-1.205.354-1.633.236-.433.559-.778.965-1.042.406-.26.885-.44 1.443-.541a9.968 9.968 0 0 1 1.824-.154c.709 0 1.396.029 2.064.089.666.061 1.297.141 1.889.241.32.051.479.22.479.505v.837c0 .286-.143.433-.43.433h-.074c-.439-.035-1.025-.077-1.764-.13a31.79 31.79 0 0 0-2.164-.075c-.711 0-1.279.086-1.709.256-.432.169-.646.57-.646 1.215 0 .389.143.719.428.999.291.279.729.59 1.318.926l2.508 1.495c1.049.625 1.773 1.231 2.18 1.823a3.46 3.46 0 0 1 .606 2.001zm9.604 3.548a13.73 13.73 0 0 1-.838.087 9.127 9.127 0 0 1-.809.038 7.376 7.376 0 0 1-1.535-.138c-.428-.093-.783-.266-1.064-.52-.277-.256-.486-.6-.631-1.042-.143-.437-.215-1-.215-1.696v-8.84l-2.461-.279c-.318-.034-.48-.188-.48-.454v-.685c0-.304.162-.456.48-.456h2.461V4.638c0-.288.152-.458.455-.506l1.316-.204h.078c.102 0 .188.037.264.113.078.075.115.181.115.318V7.12h2.736c.135 0 .254.052.354.152.102.099.154.22.154.354v.864c0 .133-.053.25-.154.352a.477.477 0 0 1-.354.153h-2.736v8.82c0 .689.104 1.128.303 1.314.203.186.559.278 1.064.278h1.418c.357 0 .533.119.533.359v.9c.001.241-.15.386-.454.439zm20.039-13.376l-2.457 11.753a6.98 6.98 0 0 1-.254.952 1.149 1.149 0 0 1-.355.519 1.24 1.24 0 0 1-.594.228 6.95 6.95 0 0 1-.924.05c-.34 0-.617-.022-.84-.061a1.2 1.2 0 0 1-.553-.256c-.156-.125-.281-.306-.383-.545a6.264 6.264 0 0 1-.303-.961l-2.207-8.616c-.033-.081-.053-.135-.061-.15-.01-.017-.031-.025-.064-.025-.035 0-.057.009-.064.025-.01.016-.029.069-.063.15l-2.203 8.616a6.65 6.65 0 0 1-.307.909 1.5 1.5 0 0 1-.381.559c-.148.134-.34.229-.564.278a4.015 4.015 0 0 1-.826.076c-.389 0-.699-.016-.938-.05a1.174 1.174 0 0 1-.58-.228 1.124 1.124 0 0 1-.357-.531 7.857 7.857 0 0 1-.256-.939l-2.453-11.753v-.102c0-.135.043-.256.137-.354a.449.449 0 0 1 .342-.152h1.369a.38.38 0 0 1 .291.126c.076.085.123.18.141.278l2.102 11.576c.035.152.07.244.104.27a.173.173 0 0 0 .1.038c.086 0 .152-.103.203-.308l2.484-9.747c.08-.291.207-.491.365-.598.16-.111.375-.167.646-.167h1.418c.268 0 .486.056.646.167.16.106.281.307.367.598l2.482 9.747c.053.205.119.308.205.308a.184.184 0 0 0 .1-.038c.035-.025.066-.117.102-.27l2.102-11.576a.573.573 0 0 1 .139-.278.384.384 0 0 1 .293-.126h1.369c.135 0 .248.052.342.152a.5.5 0 0 1 .139.354v.102zm13.072 7.319c0 .93-.119 1.775-.354 2.534-.24.76-.592 1.41-1.064 1.949a4.788 4.788 0 0 1-1.771 1.258c-.713.295-1.529.441-2.457.441-.93 0-1.748-.146-2.447-.441a4.763 4.763 0 0 1-1.76-1.258c-.475-.539-.83-1.189-1.063-1.949-.238-.759-.357-1.604-.357-2.534v-1.925c0-.928.119-1.771.357-2.532.232-.76.588-1.41 1.063-1.95a4.709 4.709 0 0 1 1.76-1.254c.699-.295 1.518-.444 2.447-.444.928 0 1.744.149 2.457.444a4.725 4.725 0 0 1 1.771 1.254c.473.54.824 1.19 1.064 1.95.234.761.354 1.604.354 2.532v1.925zm-2.23-1.925c0-1.3-.268-2.331-.811-3.089-.539-.761-1.408-1.138-2.605-1.138-1.184 0-2.047.372-2.588 1.123-.537.751-.811 1.789-.811 3.104v1.925c0 1.301.266 2.333.799 3.093.531.76 1.396 1.14 2.6 1.14 1.18 0 2.045-.375 2.596-1.127.547-.751.82-1.786.82-3.105v-1.926zm22.019-5.394l-2.461 11.753a7.025 7.025 0 0 1-.252.952 1.14 1.14 0 0 1-.354.519 1.273 1.273 0 0 1-.594.228c-.246.034-.557.05-.926.05-.338 0-.617-.022-.838-.061a1.224 1.224 0 0 1-.557-.256c-.154-.125-.279-.306-.381-.545a6.975 6.975 0 0 1-.305-.961l-2.203-8.616a52.539 52.539 0 0 1-.061-.15c-.012-.017-.033-.025-.066-.025s-.055.009-.064.025a3.48 3.48 0 0 0-.061.15l-2.205 8.616c-.1.371-.203.675-.305.909-.1.238-.229.424-.381.559-.15.134-.34.229-.57.278a3.94 3.94 0 0 1-.82.076c-.393 0-.703-.016-.938-.05a1.22 1.22 0 0 1-.586-.228 1.133 1.133 0 0 1-.352-.531 7.495 7.495 0 0 1-.256-.939L166.67 7.729v-.102c0-.135.047-.256.139-.354a.456.456 0 0 1 .344-.152h1.365c.121 0 .219.043.293.126.076.085.123.18.141.278l2.102 11.576c.035.152.068.244.102.27a.185.185 0 0 0 .104.038c.082 0 .152-.103.201-.308l2.482-9.747c.084-.291.207-.491.367-.598.158-.111.377-.167.645-.167h1.418c.273 0 .488.056.648.167.162.106.281.307.367.598l2.484 9.747c.051.205.115.308.203.308a.184.184 0 0 0 .1-.038c.035-.025.066-.117.102-.27l2.104-11.576a.548.548 0 0 1 .139-.278.381.381 0 0 1 .293-.126h1.367a.46.46 0 0 1 .344.152c.092.099.139.22.139.354v.102zm12.389 12.817a.488.488 0 0 1-.152.356.487.487 0 0 1-.355.152h-1.166a.484.484 0 0 1-.354-.152.48.48 0 0 1-.152-.356v-.558a11.83 11.83 0 0 1-1.873.888 5.787 5.787 0 0 1-2.027.354 6.303 6.303 0 0 1-1.561-.188 3.33 3.33 0 0 1-1.318-.673c-.377-.318-.682-.742-.91-1.265-.229-.524-.342-1.184-.342-1.978v-.304c0-.675.105-1.272.316-1.785a2.962 2.962 0 0 1 1.039-1.292c.48-.347 1.109-.604 1.889-.775.775-.169 1.729-.254 2.859-.254h1.877v-1.01c0-1.065-.205-1.811-.605-2.232-.408-.421-1.107-.633-2.105-.633-.828 0-1.555.021-2.182.064-.623.041-1.188.089-1.695.141h-.127a.648.648 0 0 1-.316-.077c-.092-.053-.139-.159-.139-.329v-.885c0-.271.176-.432.533-.482.521-.085 1.094-.16 1.709-.228s1.354-.103 2.217-.103c1.758 0 3.018.423 3.787 1.267.768.845 1.154 2.011 1.154 3.498v8.839zm-2.231-6.231h-1.877c-.76 0-1.391.045-1.898.137-.506.095-.902.238-1.189.433a1.54 1.54 0 0 0-.607.76c-.119.314-.18.698-.18 1.151v.304c0 .913.203 1.527.607 1.839.408.313.98.47 1.723.47.594 0 1.158-.087 1.697-.256a9.084 9.084 0 0 0 1.725-.759v-4.079zM84.208 45.377c0 .168-.109.254-.328.254h-1.977a.73.73 0 0 1-.559-.254l-7.146-8.692v8.439a.53.53 0 0 1-.125.353.41.41 0 0 1-.328.154h-1.393a.416.416 0 0 1-.331-.154.548.548 0 0 1-.127-.353V27.287a.475.475 0 0 1 .483-.48h1.343c.134 0 .25.047.344.136a.47.47 0 0 1 .135.344v8.184l7.299-8.435c.086-.086.159-.147.216-.179.059-.036.154-.05.29-.05h1.825c.238 0 .356.091.356.276a.342.342 0 0 1-.104.253l-7.623 8.616 7.623 9.119a.417.417 0 0 1 .127.306zm12.716-5.754c0 .931-.115 1.776-.354 2.535-.237.761-.59 1.41-1.064 1.95-.473.544-1.062.957-1.772 1.257-.71.294-1.529.441-2.457.441-.93 0-1.742-.147-2.445-.441-.7-.3-1.287-.713-1.762-1.257-.474-.54-.827-1.189-1.062-1.95-.238-.759-.356-1.604-.356-2.535v-1.924c0-.928.118-1.773.356-2.532.234-.762.588-1.41 1.062-1.951a4.845 4.845 0 0 1 1.762-1.255c.703-.294 1.516-.442 2.445-.442.928 0 1.747.148 2.457.442.711.298 1.3.717 1.772 1.255.474.541.827 1.189 1.064 1.951.238.759.354 1.604.354 2.532v1.924zm-2.227-1.924c0-1.3-.271-2.329-.811-3.089-.542-.76-1.409-1.14-2.609-1.14-1.182 0-2.045.374-2.585 1.126s-.811 1.787-.811 3.103v1.924c0 1.303.267 2.334.798 3.095.532.76 1.398 1.139 2.598 1.139 1.183 0 2.048-.378 2.598-1.129.548-.752.822-1.784.822-3.104v-1.925zm21.837 7.778a.485.485 0 0 1-.352.154h-1.217a.49.49 0 0 1-.354-.154.481.481 0 0 1-.152-.353v-8.97c0-.522-.061-.962-.18-1.317-.119-.354-.279-.633-.48-.834a1.682 1.682 0 0 0-.736-.434 3.196 3.196 0 0 0-.91-.125c-.455 0-.943.065-1.459.2-.514.138-1.016.298-1.506.484.15.559.227 1.214.227 1.974v9.021a.535.535 0 0 1-.125.353.412.412 0 0 1-.33.154h-1.342a.384.384 0 0 1-.318-.154.584.584 0 0 1-.113-.353v-9.021c0-.556-.035-1.006-.115-1.354-.072-.346-.197-.618-.365-.811a1.251 1.251 0 0 0-.621-.394 3.305 3.305 0 0 0-.848-.1c-.457 0-.949.094-1.484.293-.531.191-1.068.425-1.607.693v10.693a.537.537 0 0 1-.127.353.412.412 0 0 1-.33.154h-1.342a.372.372 0 0 1-.315-.154.554.554 0 0 1-.114-.353v-12.92c0-.137.044-.257.139-.356a.438.438 0 0 1 .342-.151h1.268c.135 0 .248.049.342.151.094.1.139.22.139.356v.481a9.476 9.476 0 0 1 1.697-.838 5.607 5.607 0 0 1 2.002-.354c.541 0 1.016.079 1.432.242.414.161.779.426 1.104.797a11.115 11.115 0 0 1 2.141-.773 8.666 8.666 0 0 1 2.063-.266c.572 0 1.111.074 1.611.227.496.153.932.409 1.303.773.373.364.662.846.873 1.444s.318 1.338.318 2.217v8.97a.51.51 0 0 1-.159.355zm6.158-16.518a.5.5 0 0 1-.152.355.494.494 0 0 1-.354.151h-1.291a.5.5 0 0 1-.357-.151.484.484 0 0 1-.152-.355v-2.025a.49.49 0 0 1 .152-.357.5.5 0 0 1 .357-.152h1.291a.5.5 0 0 1 .354.152c.098.104.152.22.152.357v2.025zm-.054 16.165a.487.487 0 0 1-.146.353.494.494 0 0 1-.357.154h-1.217a.493.493 0 0 1-.354-.154.48.48 0 0 1-.15-.353v-12.92c0-.137.049-.257.15-.356a.479.479 0 0 1 .354-.151h1.217c.139 0 .254.049.357.151.1.1.146.22.146.356v12.92zm12.572-2.99c0 .642-.117 1.194-.346 1.658a3.003 3.003 0 0 1-.963 1.142c-.414.294-.91.516-1.492.658a8.05 8.05 0 0 1-1.939.215 17.299 17.299 0 0 1-1.889-.077c-.363-.032-.73-.07-1.104-.113a6.35 6.35 0 0 1-1.01-.19c-.355-.083-.533-.25-.533-.505v-.889c0-.119.041-.211.127-.278s.191-.103.33-.103h.1a42.624 42.624 0 0 0 2.106.19c.369.028.713.051 1.037.066.32.016.6.026.836.026.824 0 1.453-.126 1.875-.381.422-.253.631-.727.631-1.419 0-.391-.135-.727-.402-1.015-.271-.287-.77-.649-1.496-1.087l-2.557-1.521c-.777-.473-1.404-.993-1.877-1.56-.471-.563-.709-1.252-.709-2.063 0-.658.119-1.203.354-1.633.236-.431.559-.776.963-1.043.406-.259.887-.438 1.443-.54a9.994 9.994 0 0 1 1.826-.153c.709 0 1.396.029 2.064.089s1.297.138 1.887.24c.322.052.48.22.48.505v.839c0 .287-.141.431-.43.431h-.076c-.439-.035-1.025-.078-1.762-.128a31.843 31.843 0 0 0-2.164-.076c-.711 0-1.279.086-1.713.252-.43.174-.645.576-.645 1.218 0 .388.141.722.434 1 .285.279.725.588 1.316.925l2.508 1.495c1.047.625 1.773 1.232 2.178 1.825.407.591.612 1.257.612 2zm5.492 5.121c0 .655-.07 1.198-.213 1.631-.145.431-.348.773-.609 1.038a2.1 2.1 0 0 1-.986.544 5.405 5.405 0 0 1-1.355.153c-.256 0-.482-.012-.684-.026-.205-.019-.432-.04-.684-.075-.305-.052-.455-.187-.455-.406v-.938c0-.236.174-.354.531-.354h1.035c.492 0 .813-.104.967-.304.15-.206.225-.624.225-1.264v-15.05c0-.137.043-.257.127-.356a.41.41 0 0 1 .332-.151h1.316c.135 0 .242.049.328.151.086.1.125.22.125.356v15.051zm.053-18.27a.45.45 0 0 1-.152.34.493.493 0 0 1-.354.141h-1.295a.5.5 0 0 1-.354-.141.438.438 0 0 1-.15-.34v-2.052c0-.138.049-.254.15-.357a.499.499 0 0 1 .354-.152h1.295c.135 0 .254.054.354.152.1.104.152.22.152.357v2.052zm13.402 16.139a.499.499 0 0 1-.15.353.494.494 0 0 1-.357.154h-1.162a.491.491 0 0 1-.357-.154.489.489 0 0 1-.152-.353v-.559c-.607.355-1.232.651-1.873.886a5.783 5.783 0 0 1-2.029.355 6.294 6.294 0 0 1-1.557-.19 3.26 3.26 0 0 1-1.318-.67c-.379-.321-.684-.743-.912-1.267-.227-.523-.34-1.183-.34-1.976v-.305c0-.675.104-1.271.314-1.786a2.976 2.976 0 0 1 1.039-1.292c.482-.347 1.111-.604 1.889-.772.777-.17 1.73-.257 2.861-.257h1.877v-1.01c0-1.064-.205-1.81-.609-2.232-.406-.421-1.105-.632-2.104-.632-.828 0-1.551.02-2.178.065-.625.039-1.191.086-1.697.139h-.127a.63.63 0 0 1-.318-.078c-.094-.05-.139-.158-.139-.328v-.884c0-.273.178-.433.533-.484.523-.084 1.094-.159 1.711-.227s1.355-.103 2.215-.103c1.756 0 3.02.42 3.789 1.267.768.844 1.152 2.011 1.152 3.497v8.843zm-2.228-6.232h-1.877c-.76 0-1.393.044-1.9.138-.506.094-.9.237-1.188.433a1.547 1.547 0 0 0-.611.759c-.117.313-.178.697-.178 1.151v.306c0 .91.203 1.524.609 1.836.406.313.98.47 1.725.47.592 0 1.152-.084 1.695-.255a9.02 9.02 0 0 0 1.725-.761v-4.077zM91.047 51.887l-2.811 17.127c-.085.522-.267.87-.544 1.036-.28.169-.623.255-1.029.255h-1.087c-.356 0-.659-.114-.912-.342-.254-.229-.432-.537-.531-.924l-2.483-9.376c-.033-.116-.06-.186-.078-.201-.016-.017-.041-.026-.075-.026H81.446c-.034 0-.061.01-.075.026-.018.016-.044.085-.074.201l-2.509 9.376c-.102.387-.281.694-.533.924a1.315 1.315 0 0 1-.912.342H76.28c-.405 0-.75-.086-1.027-.255-.277-.166-.46-.514-.546-1.036l-2.812-17.127v-.076c0-.29.142-.433.433-.433h1.466c.239 0 .384.147.433.436l2.458 16.161c.035.135.05.231.05.291 0 .061.026.09.077.09.065 0 .129-.129.178-.381l2.48-9.396c.171-.681.566-1.017 1.192-1.017h1.622c.626 0 1.02.336 1.19 1.017l2.483 9.396c.052.252.107.381.179.381.049 0 .073-.029.073-.09 0-.06.017-.156.053-.291l2.457-16.161c.052-.288.192-.436.429-.436h1.47c.286 0 .431.143.431.433v.076zm13.403 4.814a.486.486 0 0 1-.023.177l-4.18 14.593c-.204.692-.421 1.274-.648 1.747s-.521.857-.873 1.15a3.31 3.31 0 0 1-1.279.646c-.498.138-1.113.206-1.836.206-.357 0-.73-.021-1.129-.065a7.828 7.828 0 0 1-.999-.163 1.54 1.54 0 0 1-.38-.131c-.103-.048-.153-.14-.153-.276v-.939c0-.268.159-.4.48-.4h.076c.288.032.663.066 1.127.101.465.032.839.052 1.13.052.353 0 .666-.029.934-.094.271-.058.504-.166.698-.325.192-.162.362-.385.505-.659.143-.278.266-.64.37-1.077l.252-1.039h-.356c-.185 0-.364-.016-.544-.051a1.243 1.243 0 0 1-.506-.228 1.679 1.679 0 0 1-.442-.532 4.568 4.568 0 0 1-.379-.938L92.923 56.88a.456.456 0 0 1-.025-.177c0-.287.152-.435.456-.435h1.395c.101 0 .189.046.264.128.078.087.134.18.166.28l2.988 11.019c.067.256.147.409.228.472a.45.45 0 0 0 .254.088h.407l3.091-11.603a.641.641 0 0 1 .178-.268.449.449 0 0 1 .303-.116h1.418c.271-.001.404.146.404.433zm13.428 7.421c0 .949-.111 1.809-.33 2.587-.219.773-.555 1.432-1.014 1.974a4.526 4.526 0 0 1-1.721 1.255c-.693.295-1.512.441-2.459.441-.758 0-1.527-.033-2.305-.101a23.204 23.204 0 0 1-2.355-.328c-.236-.035-.387-.093-.443-.179-.061-.084-.09-.218-.09-.406v-17.73c0-.136.043-.25.127-.346a.419.419 0 0 1 .33-.139h1.291c.135 0 .248.046.344.139.09.096.141.21.141.346v4.712a19.017 19.017 0 0 1 2.961-.254c1.842 0 3.221.533 4.143 1.606.92 1.075 1.381 2.607 1.381 4.601v1.822zm-2.229-1.822c0-1.353-.24-2.398-.723-3.143-.48-.742-1.338-1.116-2.572-1.116-.201 0-.428.009-.684.017-.254.008-.512.013-.785.022-.27.01-.535.025-.799.051s-.492.055-.693.088v10.057c.436.037.93.07 1.48.103.551.034 1.043.05 1.48.05 1.252 0 2.111-.372 2.584-1.111.473-.745.711-1.809.711-3.194V62.3zm16.036 1.898c0 .93-.117 1.774-.354 2.532-.238.762-.59 1.41-1.064 1.952a4.747 4.747 0 0 1-1.771 1.255c-.713.295-1.529.441-2.461.441-.93 0-1.744-.146-2.441-.441-.701-.297-1.291-.713-1.764-1.255s-.826-1.19-1.064-1.952c-.236-.758-.352-1.603-.352-2.532v-1.926c0-.929.115-1.772.352-2.533.238-.758.592-1.407 1.064-1.949a4.857 4.857 0 0 1 1.764-1.258c.697-.294 1.512-.439 2.441-.439.932 0 1.748.146 2.461.439.707.3 1.299.72 1.771 1.258.475.542.826 1.191 1.064 1.949.236.761.354 1.604.354 2.533v1.926zm-2.231-1.926c0-1.3-.271-2.332-.811-3.091-.539-.76-1.41-1.141-2.609-1.141-1.18 0-2.041.378-2.582 1.129-.543.751-.814 1.787-.814 3.103v1.926c0 1.302.27 2.331.803 3.091.531.76 1.396 1.139 2.594 1.139 1.186 0 2.049-.373 2.6-1.125.549-.751.82-1.783.82-3.104v-1.927zm10.949-4.231c-.594 0-1.164.084-1.713.243-.551.16-1.145.432-1.785.818v10.595a.477.477 0 0 1-.152.353.484.484 0 0 1-.355.153h-1.24a.45.45 0 0 1-.344-.153.5.5 0 0 1-.141-.353V56.776c0-.135.047-.255.141-.355a.452.452 0 0 1 .344-.154h1.191c.135 0 .248.053.342.156.09.104.137.222.137.36v.539c.645-.444 1.256-.762 1.838-.948a5.63 5.63 0 0 1 1.738-.281c.352 0 .531.155.531.459v1.055c0 .29-.18.434-.532.434zm10.817 11.884c-.068.085-.203.144-.408.179-.42.084-.906.15-1.453.201-.551.049-1.119.074-1.711.074-.863 0-1.627-.146-2.295-.441a4.85 4.85 0 0 1-1.695-1.24c-.465-.532-.814-1.182-1.051-1.941-.238-.759-.357-1.604-.357-2.534V62.25c0-.931.119-1.774.357-2.536.236-.757.582-1.403 1.037-1.937a4.75 4.75 0 0 1 1.697-1.244c.678-.294 1.443-.439 2.307-.439.592 0 1.16.023 1.711.075.547.051 1.033.118 1.453.205.205.031.34.089.408.159.066.08.102.208.102.396v.911c0 .136-.043.23-.127.291a.509.509 0 0 1-.303.088h-.104a26.058 26.058 0 0 0-1.52-.139 33.333 33.333 0 0 0-1.621-.039c-1.016 0-1.795.343-2.346 1.026-.547.688-.822 1.744-.822 3.182v1.973c0 1.438.271 2.497.813 3.181.541.686 1.324 1.025 2.355 1.025.627 0 1.166-.012 1.621-.035.457-.026.963-.072 1.52-.14h.104c.117 0 .219.028.303.086.084.061.127.158.127.294v.912c-.001.169-.036.293-.102.38zm12.008.125a.477.477 0 0 1-.354.153h-7.652c-.539 0-.932-.144-1.176-.432a1.44 1.44 0 0 1-.369-.964v-.48c0-.353.043-.644.129-.872.08-.229.234-.484.451-.771l6.539-8.134c.066-.103.102-.18.102-.227 0-.12-.084-.18-.252-.18h-6.156a.489.489 0 0 1-.357-.152.487.487 0 0 1-.152-.353v-.862c0-.135.053-.255.152-.355a.49.49 0 0 1 .357-.154h7.447c.521 0 .889.112 1.1.331.215.219.318.526.318.913v.607c0 .272-.045.512-.139.723s-.24.435-.445.671l-6.662 8.335a.387.387 0 0 0-.127.279c0 .136.068.201.205.201h6.688c.135 0 .254.051.354.154a.481.481 0 0 1 .152.353v.863a.487.487 0 0 1-.153.353zm12.841-.353a.474.474 0 0 1-.152.353.468.468 0 0 1-.354.153h-1.162a.478.478 0 0 1-.354-.153.475.475 0 0 1-.156-.353v-.559a11.69 11.69 0 0 1-1.875.887 5.75 5.75 0 0 1-2.023.354 6.359 6.359 0 0 1-1.559-.188 3.272 3.272 0 0 1-1.32-.672c-.379-.319-.682-.741-.91-1.266s-.342-1.184-.342-1.976v-.305c0-.674.105-1.271.316-1.785a2.937 2.937 0 0 1 1.039-1.291c.48-.347 1.111-.606 1.885-.776.777-.169 1.734-.255 2.865-.255h1.873v-1.01c0-1.066-.203-1.81-.605-2.229-.404-.424-1.107-.636-2.104-.636-.826 0-1.557.021-2.178.066a42.64 42.64 0 0 0-1.697.138h-.131a.625.625 0 0 1-.314-.077c-.094-.052-.141-.162-.141-.328v-.887c0-.271.18-.43.533-.482a29.209 29.209 0 0 1 1.709-.226 20.367 20.367 0 0 1 2.219-.103c1.756 0 3.018.421 3.789 1.265.768.846 1.148 2.011 1.148 3.498v8.843zm-2.228-6.234h-1.873c-.762 0-1.393.046-1.9.14-.508.095-.902.238-1.191.433a1.58 1.58 0 0 0-.609.76c-.117.311-.174.697-.174 1.151v.305c0 .912.203 1.526.605 1.837.404.312.98.469 1.723.469a5.54 5.54 0 0 0 1.699-.256 9.048 9.048 0 0 0 1.721-.758v-4.081z"/><path fill-rule="evenodd" clip-rule="evenodd" fill="#9D032A" d="M55.161 5.5V1.314H1.375V5.5h-.001v2.091h.002v12.188a39.938 39.938 0 0 1 8.216 3.928v.001a25.75 25.75 0 0 1 2.567 1.728c1.842 1.433 3.333 3.015 4.808 4.866 1.291 1.616 2.889 3.938 3.041 6.631.084 1.479-.228 2.689-.839 3.621-.634.963-1.712 1.926-3.244 1.797-.098.434-.197.802-.174 1.301.104 2.291 2.854 2.533 4.952 2.928.1-1.525.393-2.854 1.187-3.679-.695-.275-.826-1.74-.375-2.403.232.258.364.553.781.578.889.054 1.888-1.005 2.346-1.479a13.187 13.187 0 0 0 1.681-2.114c-.458-.181-.793-.757-.609-1.388 1.348-.719 2.765-1.868 3.216-3.621.268-1.049-.059-1.887-.608-2.576-.451-.569-1.131-1.316-2.115-1.305-.236 0-.387.144-.665.057-.148-.101-.14-.437-.058-.608-1.616.298-4.644 1.53-5.996.175-.262-.264-.46-.787-.29-1.362.38.277.794.719 1.563.727 1.369.006 2.416-.933 3.593-1.132-.215-.453-.713-.831-1.361-.896-.933-.097-1.748.415-2.201.868-.235-.69-.534-1.382-.464-2.229.115-1.399 1.259-1.934 2.723-1.998-.029-1.265.645-1.83 1.622-2.086-.76-2.639-1.626-5.172-2.838-7.357.69.709 2.249.552 2.606 1.593.551-.638 1.796-.415 1.94.434.027-.701.21-1.482 1.013-1.503-.328-.793.541-1.258 1.073-.784-.044-.72.336-1.016.607-1.419.312.363.727.624.812 1.217.663-.463 1.652.188 1.1 1.073.681.013 1.021.368.956 1.128.233-.614 1.36-1.162 1.94-.435.661-.778 1.871-1.008 2.81-1.507-.616 1.158-1.317 2.354-1.824 3.737-.503 1.37-.829 2.858-1.217 4.373.603-.246.983-.717 1.217-1.332.915.409.77 2.286-.173 2.55.339.526 1.828.643 2.026-.087.561.331.782 1.883-.175 1.94.117.436-.046.813-.289.982 1.472 1.934.559 5.835.348 8.544-.102 1.299-.076 2.631.607 3.246-.179.18-.603.313-.926.173.164 1.496-.78 3.293-.174 4.575.291.617.929.861 1.737 1.014-.143.533-.554.801-1.129.898.53.713.854 2.042.724 3.419 2.732.267 5.594-1.013 4.75-3.969-1.961.204-3.078-.921-3.707-2.201-.737-1.499-.563-3.418-.058-5.011.929-2.933 2.892-5.317 4.72-7.299 2.112-2.288 5.823-4.799 9.922-6.727v47.568H17.699v2.092h37.462V7.591h2.092v65.537H3.465V58.896H1.374V75.22h57.971V5.5h-4.184z"/></svg>